<?xml version="1.0" standalone="no"?>
<!DOCTYPE svg PUBLIC "-//W3C//DTD SVG 20010904//EN"
 "http://www.w3.org/TR/2001/REC-SVG-20010904/DTD/svg10.dtd">
<svg version="1.0" xmlns="http://www.w3.org/2000/svg"
 width="316.000000pt" height="316.000000pt" viewBox="0 0 316.000000 316.000000"
 preserveAspectRatio="xMidYMid meet">
<metadata>
Created by potrace 1.14, written by Peter Selinger 2001-2017
</metadata>
<g transform="translate(0.000000,316.000000) scale(0.100000,-0.100000)"
fill="#000000" stroke="none">
<path d="M1577 2903 c-3 -5 -1 -17 4 -28 7 -17 8 -17 8 8 1 27 -4 34 -12 20z"/>
<path d="M1612 2838 c0 -55 2 -68 15 -68 13 0 13 3 3 15 -16 19 -1 19 24 0 22
-17 36 -19 36 -7 0 5 -15 15 -32 23 -28 12 -33 19 -33 47 -1 38 19 54 51 42
28 -11 35 -43 17 -72 l-15 -23 21 23 c16 19 18 28 9 52 -5 17 -16 31 -24 31
-8 1 -27 2 -43 3 l-28 1 -1 -67z"/>
<path d="M1406 2880 c12 -14 24 -32 27 -40 5 -13 6 -13 6 1 1 8 -11 26 -26 40
l-28 24 21 -25z"/>
<path d="M1524 2840 c4 -82 12 -85 12 -5 1 36 -3 65 -7 65 -5 0 -7 -27 -5 -60z"/>
<path d="M1745 2863 c1 -21 -2 -51 -6 -66 -6 -20 -5 -27 3 -25 13 5 23 128 10
128 -4 0 -7 -17 -7 -37z"/>
<path d="M1791 2874 c-24 -31 -26 -43 -10 -78 11 -24 63 -46 76 -32 4 3 -3 6
-13 6 -55 0 -78 76 -34 112 12 10 18 18 12 18 -6 0 -20 -12 -31 -26z"/>
<path d="M1878 2879 c18 -16 23 -30 20 -55 -3 -26 -1 -31 9 -22 10 8 13 6 13
-6 0 -25 45 -50 68 -37 39 21 38 50 -5 84 -14 11 -20 24 -16 35 3 9 3 14 -1
10 -15 -13 -14 -58 1 -58 8 0 11 -5 7 -12 -5 -8 -2 -9 9 -5 19 7 29 -5 21 -26
-15 -40 -79 -23 -72 18 4 18 1 22 -11 17 -9 -3 -13 -2 -9 3 10 11 -18 61 -39
69 -13 5 -12 1 5 -15z"/>
<path d="M1986 2887 c3 -10 9 -15 12 -12 3 3 0 11 -7 18 -10 9 -11 8 -5 -6z"/>
<path d="M1270 2880 c0 -5 5 -10 10 -10 6 0 10 5 10 10 0 6 -4 10 -10 10 -5 0
-10 -4 -10 -10z"/>
<path d="M1322 2878 c-21 -27 -23 -58 -6 -87 20 -33 40 -42 69 -30 20 9 20 9
0 8 -37 -2 -44 1 -60 25 -14 22 -15 28 -1 60 16 38 15 44 -2 24z"/>
<path d="M1141 2864 c0 -11 3 -14 6 -6 3 7 2 16 -1 19 -3 4 -6 -2 -5 -13z"/>
<path d="M1178 2845 c2 -19 8 -37 12 -40 5 -3 7 3 5 12 -2 10 -4 28 -4 41 -1
12 -5 22 -9 22 -4 0 -6 -16 -4 -35z"/>
<path d="M1220 2871 c0 -6 10 -26 23 -44 12 -19 27 -43 34 -53 10 -17 12 -15
12 16 1 24 -2 31 -8 21 -7 -10 -13 -5 -26 23 -18 37 -35 55 -35 37z"/>
<path d="M1090 2859 c0 -10 16 -40 35 -69 29 -44 35 -48 33 -26 -1 14 -6 26
-10 26 -4 0 -18 19 -32 43 -14 23 -26 35 -26 26z"/>
<path d="M2097 2858 c-11 -30 -2 -111 13 -116 13 -4 13 -3 2 10 -9 11 -11 31
-6 67 6 48 2 67 -9 39z"/>
<path d="M2149 2848 c0 -13 -2 -31 -4 -40 -2 -10 0 -18 4 -18 4 0 8 18 9 40 1
22 0 40 -3 40 -3 0 -5 -10 -6 -22z"/>
<path d="M2183 2840 c0 -16 4 -27 8 -24 7 4 35 -64 31 -78 -1 -5 3 -8 8 -8 6
0 10 12 10 26 0 17 -4 23 -12 19 -7 -4 -4 1 7 11 17 14 17 16 2 11 -14 -5 -19
0 -23 23 -9 43 -31 58 -31 20z"/>
<path d="M1013 2853 c23 -4 55 -39 48 -53 -2 -3 -7 -14 -13 -25 -9 -20 -9 -20
6 -1 20 25 20 36 0 64 -10 14 -24 21 -42 21 l-27 -2 28 -4z"/>
<path d="M2237 2840 c-3 -11 -2 -22 3 -25 4 -3 10 6 12 20 6 30 -7 34 -15 5z"/>
<path d="M959 2828 c11 -29 11 -30 11 -73 0 -25 4 -33 14 -29 12 4 12 12 0 50
-7 24 -11 51 -8 59 4 9 0 15 -10 15 -12 0 -14 -5 -7 -22z"/>
<path d="M1582 2830 c0 -14 2 -19 5 -12 2 6 2 18 0 25 -3 6 -5 1 -5 -13z"/>
<path d="M2275 2825 c0 -14 3 -25 8 -25 4 0 7 4 7 9 0 5 3 16 6 25 4 10 1 16
-7 16 -8 0 -14 -11 -14 -25z"/>
<path d="M2325 2841 c-3 -6 -2 -27 3 -48 5 -21 9 -41 10 -45 1 -5 2 -15 2 -24
0 -14 3 -14 15 -4 11 9 12 15 5 20 -11 7 -22 56 -22 93 1 19 -4 22 -13 8z"/>
<path d="M817 2833 c-9 -2 -15 -8 -12 -13 4 -7 9 -32 20 -99 1 -8 8 -17 15
-19 8 -3 10 0 5 8 -7 11 -13 44 -18 95 -1 11 3 19 11 18 6 -2 12 2 12 7 0 10
-3 11 -33 3z"/>
<path d="M873 2788 c12 -63 30 -87 54 -72 9 5 17 18 19 28 1 10 -1 15 -4 11
-4 -4 -7 -12 -7 -18 0 -7 -8 -13 -17 -15 -19 -4 -28 22 -37 111 -1 4 -5 7 -10
7 -4 0 -4 -24 2 -52z"/>
<path d="M775 2820 c-3 -5 -1 -10 4 -10 6 0 11 5 11 10 0 6 -2 10 -4 10 -3 0
-8 -4 -11 -10z"/>
<path d="M1223 2815 c0 -8 4 -12 9 -9 5 3 6 10 3 15 -9 13 -12 11 -12 -6z"/>
<path d="M2382 2824 c4 -3 0 -21 -8 -40 -20 -47 -10 -43 14 6 17 34 17 40 4
40 -8 0 -13 -3 -10 -6z"/>
<path d="M2426 2818 c-16 -59 -21 -118 -11 -118 7 0 12 8 12 18 0 46 4 63 13
57 6 -3 10 -2 10 4 0 5 -4 12 -10 16 -5 3 -7 12 -3 20 3 8 2 15 -1 15 -4 0 -8
-6 -10 -12z"/>
<path d="M2450 2812 c0 -5 7 -9 15 -9 8 0 15 4 15 9 0 4 -7 8 -15 8 -8 0 -15
-4 -15 -8z"/>
<path d="M640 2795 c-7 -8 -9 -22 -6 -31 4 -10 -1 -25 -11 -36 -18 -21 -10
-47 18 -57 9 -3 8 1 -4 13 -21 21 -21 30 -3 45 11 10 17 8 25 -6 10 -17 10
-17 11 0 0 9 4 17 9 17 13 0 24 -37 15 -52 -5 -10 -4 -10 5 -2 20 18 9 46 -23
64 -32 17 -50 48 -23 37 11 -4 14 -2 10 9 -6 17 -8 17 -23 -1z"/>
<path d="M729 2766 c-2 -24 -1 -42 4 -39 4 2 7 13 7 24 0 27 14 17 35 -27 9
-19 19 -33 22 -31 5 6 -49 116 -58 117 -4 0 -9 -20 -10 -44z"/>
<path d="M2496 2772 c-4 -20 -9 -49 -12 -64 -4 -18 -1 -28 6 -28 6 0 9 4 5 9
-3 5 -1 12 5 16 5 3 10 2 10 -2 0 -8 52 -43 64 -43 10 0 -31 38 -54 50 -18 9
-20 17 -14 43 3 17 13 36 21 42 12 9 11 11 -5 12 -16 1 -21 -7 -26 -35z"/>
<path d="M2550 2805 c0 -3 9 -14 20 -25 16 -16 18 -25 10 -45 -14 -38 -12 -43
6 -17 19 28 12 67 -16 82 -11 6 -20 8 -20 5z"/>
<path d="M1184 2770 c0 -20 7 -25 19 -14 7 7 -2 34 -12 34 -4 0 -7 -9 -7 -20z"/>
<path d="M1562 2775 c-7 -8 -9 -15 -4 -15 5 0 15 7 22 15 16 19 -1 19 -18 0z"/>
<path d="M2269 2778 c0 -7 -2 -21 -4 -30 -2 -10 1 -20 6 -24 5 -3 9 1 10 8 0
7 2 23 5 36 2 12 -1 22 -6 22 -6 0 -10 -6 -11 -12z"/>
<path d="M1870 2769 c0 -5 5 -7 10 -4 6 3 10 8 10 11 0 2 -4 4 -10 4 -5 0 -10
-5 -10 -11z"/>
<path d="M2136 2764 c-4 -9 -4 -19 -1 -22 2 -3 7 3 11 12 4 9 4 19 1 22 -2 3
-7 -3 -11 -12z"/>
<path d="M2645 2768 c-3 -7 -3 -22 -1 -33 3 -11 5 -27 5 -35 1 -13 2 -13 11 0
6 10 12 12 19 5 8 -8 6 -18 -5 -33 -19 -27 -28 -28 -55 -1 -20 20 -20 22 -3
40 21 23 12 26 -10 3 -12 -11 -13 -20 -6 -34 23 -43 70 -47 91 -8 8 15 5 25
-16 50 -14 17 -24 37 -21 44 3 8 3 14 0 14 -2 0 -7 -6 -9 -12z"/>
<path d="M2675 2770 c3 -5 8 -10 11 -10 2 0 4 5 4 10 0 6 -5 10 -11 10 -5 0
-7 -4 -4 -10z"/>
<path d="M1096 2755 c-3 -9 0 -15 9 -15 9 0 12 6 9 15 -4 8 -7 15 -9 15 -2 0
-5 -7 -9 -15z"/>
<path d="M1225 2760 c-3 -5 -1 -10 4 -10 6 0 11 5 11 10 0 6 -2 10 -4 10 -3 0
-8 -4 -11 -10z"/>
<path d="M2177 2763 c-11 -10 -8 -20 7 -26 10 -4 12 0 9 14 -6 21 -7 22 -16
12z"/>
<path d="M1005 2751 c6 -6 26 -13 44 -15 42 -5 27 10 -19 19 -25 5 -32 4 -25
-4z"/>
<path d="M2723 2714 c-6 -27 -15 -57 -18 -66 -4 -10 -3 -18 2 -18 5 0 10 6 11
13 0 6 6 32 12 56 6 24 9 48 7 54 -1 5 -8 -12 -14 -39z"/>
<path d="M450 2743 c14 -2 31 -12 38 -21 6 -9 12 -11 12 -6 0 18 -24 34 -49
33 l-26 -2 25 -4z"/>
<path d="M2750 2740 c0 -5 4 -10 9 -10 6 0 13 5 16 10 3 6 -1 10 -9 10 -9 0
-16 -4 -16 -10z"/>
<path d="M1527 2734 c-1 -1 -60 -4 -132 -8 -71 -3 -148 -8 -170 -11 -22 -3
-67 -7 -100 -9 -66 -6 -110 -12 -215 -30 -19 -3 -51 -8 -70 -10 -100 -12 -222
-45 -214 -57 3 -5 1 -9 -5 -9 -6 0 -9 -22 -6 -57 58 -735 195 -1253 423 -1598
65 -97 74 -108 178 -210 98 -96 194 -160 301 -200 79 -30 103 -31 172 -5 206
79 368 216 506 429 131 203 283 608 321 856 3 22 16 94 29 160 13 66 27 147
30 180 4 33 10 87 15 120 17 114 24 310 11 333 -11 21 -64 41 -126 48 -16 1
-30 3 -30 4 0 2 -20 6 -65 14 -19 3 -46 8 -60 11 -69 14 -254 33 -380 40 -47
2 -85 5 -85 6 0 2 -326 5 -328 3z"/>
<path d="M2780 2699 c-6 -24 -13 -52 -16 -61 -3 -10 0 -18 7 -18 7 0 10 3 6 6
-3 3 1 28 9 56 9 27 13 52 10 55 -2 3 -10 -15 -16 -38z"/>
<path d="M2820 2725 c0 -9 4 -14 9 -10 21 12 31 -57 16 -104 -4 -15 -3 -21 3
-17 14 8 22 61 15 96 -6 34 -43 63 -43 35z"/>
<path d="M355 2720 c-3 -5 -1 -10 4 -10 6 0 11 5 11 10 0 6 -2 10 -4 10 -3 0
-8 -4 -11 -10z"/>
<path d="M395 2713 c4 -10 12 -34 17 -53 5 -19 15 -39 20 -45 8 -7 9 -4 4 8
-5 16 -2 18 24 12 18 -4 30 -2 30 3 0 6 3 19 6 29 5 17 5 17 -6 1 -6 -10 -23
-18 -40 -18 -25 0 -29 4 -35 40 -4 22 -11 40 -17 40 -6 0 -7 -8 -3 -17z"/>
<path d="M2450 2711 c-6 -11 -6 -22 -1 -25 5 -3 11 5 13 19 6 30 2 32 -12 6z"/>
<path d="M336 2665 c7 -25 18 -53 24 -63 10 -15 11 -15 4 3 -4 11 -8 34 -8 52
0 18 -3 30 -8 27 -4 -3 -8 2 -8 10 0 9 -4 16 -9 16 -5 0 -3 -20 5 -45z"/>
<path d="M725 2701 c-3 -5 -1 -12 5 -16 5 -3 10 1 10 9 0 18 -6 21 -15 7z"/>
<path d="M623 990 c-17 -4 -54 -21 -82 -39 -28 -17 -57 -31 -64 -31 -6 0 -19
-4 -26 -9 -12 -8 -10 -12 11 -21 38 -18 51 -52 30 -81 -15 -21 -14 -22 2 -16
43 17 107 29 121 23 9 -3 15 -18 15 -35 0 -25 5 -32 28 -37 153 -34 233 -76
462 -241 159 -113 228 -156 317 -193 148 -62 278 -57 423 15 40 21 198 128
210 144 14 17 202 163 250 193 61 39 178 88 208 88 11 0 34 3 51 6 24 5 31 12
31 30 0 22 3 23 37 18 21 -3 50 -12 65 -20 33 -17 46 -18 30 -2 -21 21 -14 66
13 84 31 21 32 30 1 38 -14 3 -48 21 -77 39 -44 27 -62 32 -117 33 -100 1
-172 -16 -147 -34 18 -13 37 -54 28 -62 -4 -4 -23 -12 -42 -19 -54 -18 -150
-75 -226 -135 -279 -221 -353 -267 -472 -291 -162 -34 -286 16 -573 229 -151
113 -279 196 -299 196 -22 0 -30 27 -16 54 22 41 19 65 -7 70 -42 9 -153 12
-185 6z"/>
</g>
</svg>
